<?xml version="1.0" encoding="UTF-8" ?>
<!DOCTYPE svg PUBLIC "-//W3C//DTD SVG 1.1//EN" "http://www.w3.org/Graphics/SVG/1.1/DTD/svg11.dtd">
<svg width="220pt" height="111pt" viewBox="0 0 220 111" version="1.1" xmlns="http://www.w3.org/2000/svg">
<path fill="#01579b" d=" M 80.82 20.79 C 84.77 10.63 95.02 3.23 105.96 2.99 C 116.06 2.31 125.87 7.78 131.38 16.13 C 124.79 18.94 119.81 24.40 116.87 30.85 C 116.13 30.77 114.66 30.60 113.92 30.52 C 115.00 32.89 116.04 35.28 117.07 37.68 C 119.16 36.03 121.25 34.39 123.34 32.75 C 122.56 32.53 121.00 32.09 120.22 31.87 C 122.45 26.92 126.06 22.47 131.05 20.14 C 139.56 15.78 150.54 18.11 157.09 24.90 C 163.21 30.98 165.44 40.55 162.71 48.73 C 160.15 56.98 152.64 63.41 144.09 64.69 C 136.83 66.00 129.39 63.37 123.92 58.58 C 131.04 53.94 136.31 46.73 138.36 38.46 C 139.11 38.59 140.61 38.86 141.36 38.99 C 140.12 36.61 138.89 34.23 137.65 31.85 C 135.68 33.64 133.71 35.44 131.74 37.24 C 132.56 37.40 134.18 37.71 134.99 37.87 C 133.06 45.25 128.42 51.96 121.75 55.79 C 115.30 59.73 107.38 60.55 100.08 58.98 C 104.56 53.40 107.22 46.15 106.14 38.96 C 105.55 33.49 102.79 28.56 99.25 24.46 C 100.01 23.81 100.76 23.17 101.52 22.53 C 98.90 21.98 96.28 21.43 93.66 20.88 C 93.79 23.55 93.94 26.22 94.06 28.89 C 94.96 28.17 95.85 27.44 96.74 26.70 C 102.14 32.54 104.45 41.14 101.91 48.79 C 98.73 59.02 87.63 65.77 77.08 64.43 C 66.91 63.49 58.04 55.15 56.48 45.06 C 54.77 35.87 59.17 25.97 67.14 21.10 C 70.51 18.85 74.52 17.96 78.47 17.35 C 74.75 25.62 74.36 35.21 77.74 43.66 C 77.06 43.93 75.69 44.48 75.00 44.76 C 77.29 46.13 79.57 47.51 81.86 48.88 C 82.60 46.32 83.35 43.76 84.09 41.19 C 83.29 41.49 81.69 42.09 80.89 42.39 C 78.33 35.50 77.98 27.66 80.82 20.79 Z" />
</svg>
